<svg width="52" height="43" viewBox="0 0 52 43" fill="none" xmlns="http://www.w3.org/2000/svg">
<path fill-rule="evenodd" clip-rule="evenodd" d="M14.1865 6.91558C14.3519 6.68576 14.5355 6.40441 14.7696 6.02505C14.8551 5.88652 15.0881 5.50202 15.2618 5.21553L15.2621 5.21502L15.2621 5.21499C15.3548 5.06209 15.4305 4.93719 15.4577 4.89266C17.392 1.7286 18.7981 0.276367 21.3335 0.276367H33.0002V4.94303H21.3335C21.1311 4.94303 20.4947 5.60039 19.4393 7.32674C19.4175 7.36237 19.3525 7.46961 19.2695 7.60653C19.0944 7.89548 18.8392 8.31663 18.7409 8.47591C18.454 8.94078 18.2156 9.30608 17.9749 9.64063C16.929 11.0947 15.8836 11.943 14.3335 11.943H7.3335C6.04483 11.943 5.00016 12.9877 5.00016 14.2764V35.2764C5.00016 36.565 6.04483 37.6097 7.3335 37.6097H44.6668C45.9555 37.6097 47.0002 36.565 47.0002 35.2764V21.2764H51.6668V35.2764C51.6668 39.1424 48.5328 42.2764 44.6668 42.2764H7.3335C3.4675 42.2764 0.333496 39.1424 0.333496 35.2764V14.2764C0.333496 10.4104 3.4675 7.27637 7.3335 7.27637H13.9046C13.9823 7.18756 14.0775 7.06713 14.1865 6.91558ZM37.6668 11.943V7.27637H42.3335V2.6097H47.0002V7.27637H51.6668V11.943H47.0002V16.6097H42.3335V11.943H37.6668ZM26.0002 35.2764C19.5568 35.2764 14.3335 30.053 14.3335 23.6097C14.3335 17.1664 19.5568 11.943 26.0002 11.943C32.4435 11.943 37.6668 17.1664 37.6668 23.6097C37.6668 30.053 32.4435 35.2764 26.0002 35.2764ZM26.0002 30.6097C29.8662 30.6097 33.0002 27.4757 33.0002 23.6097C33.0002 19.7437 29.8662 16.6097 26.0002 16.6097C22.1342 16.6097 19.0002 19.7437 19.0002 23.6097C19.0002 27.4757 22.1342 30.6097 26.0002 30.6097Z" fill="#7367F0"/>
</svg>
